<svg width="160" height="24" viewBox="0 0 160 24" fill="none" xmlns="http://www.w3.org/2000/svg">
<g clip-path="url(#clip0_474_57715)">
<path d="M9.47745 0.686155L0.61084 5.80628V14.7267L9.47745 9.60659C11.8667 8.22594 13.3386 5.67757 13.3386 2.91626C13.3386 0.934205 11.1927 -0.303705 9.47745 0.686155Z" fill="#5FB2FF"/>
<path d="M9.47745 11.5069L0.61084 16.6246V21.0849C0.61084 23.0669 2.75671 24.3048 4.47199 23.315L13.3386 18.1948V13.7346C13.3386 11.7526 11.1927 10.5147 9.47745 11.5045V11.5069Z" fill="#7059FF"/>
<path d="M36.7769 19.5421H27.7137C26.5436 19.5421 25.4625 19.3689 24.4703 19.0249C23.4781 18.6809 22.6216 18.1754 21.9032 17.5132C21.1848 16.8509 20.6209 16.0483 20.2137 15.1052C19.8042 14.1622 19.6006 13.0834 19.6006 11.8736C19.6006 10.748 19.8089 9.71132 20.223 8.76826C20.6372 7.8252 21.2059 7.01553 21.9243 6.33924C22.6427 5.66296 23.4875 5.13878 24.4586 4.76436C25.4298 4.39229 26.4734 4.20508 27.585 4.20508C28.6965 4.20508 29.7402 4.39463 30.7114 4.77606C31.6825 5.1575 32.5273 5.68402 33.2457 6.3603C33.9641 7.03659 34.5304 7.84392 34.9469 8.77996C35.3611 9.716 35.5694 10.748 35.5694 11.8759C35.5694 12.4118 35.5085 12.9313 35.3892 13.4391C35.2699 13.9469 35.0897 14.4243 34.851 14.8759C34.6123 15.3275 34.3011 15.7324 33.922 16.0904C33.5429 16.4484 33.0982 16.741 32.5904 16.9679V17.0101H36.7745V19.5444L36.7769 19.5421ZM23.0218 11.8736C23.0218 12.5218 23.1411 13.1279 23.3822 13.6895C23.6209 14.2534 23.9485 14.7425 24.365 15.1591C24.7792 15.5756 25.2636 15.9009 25.8112 16.1419C26.3611 16.3806 26.9532 16.5023 27.585 16.5023C28.2168 16.5023 28.8112 16.3829 29.3588 16.1419C29.9087 15.9032 30.3908 15.5756 30.8073 15.1591C31.2215 14.7425 31.5491 14.2534 31.7901 13.6895C32.0288 13.1255 32.1505 12.5194 32.1505 11.8736C32.1505 11.2277 32.0312 10.6193 31.7901 10.0577C31.5514 9.49369 31.2238 9.00461 30.8073 8.59041C30.3908 8.17622 29.9087 7.8486 29.3588 7.60757C28.8089 7.36888 28.2168 7.24954 27.585 7.24954C26.9532 7.24954 26.3588 7.36888 25.8112 7.60757C25.2613 7.84626 24.7792 8.17388 24.365 8.59041C23.9485 9.00695 23.6209 9.49603 23.3822 10.0577C23.1435 10.6216 23.0218 11.2277 23.0218 11.8736Z" fill="white"/>
<path d="M47.8901 19.5422H44.8479V18.1475H44.8058C44.6935 18.344 44.5484 18.5429 44.3729 18.7395C44.1974 18.9361 43.9821 19.1139 43.7294 19.2684C43.4767 19.4228 43.1865 19.5492 42.8635 19.6475C42.5383 19.7457 42.1873 19.7949 41.8082 19.7949C41.0055 19.7949 40.3526 19.6709 39.8542 19.4252C39.3534 19.1794 38.9673 18.8378 38.6912 18.4002C38.4174 17.9649 38.2325 17.4501 38.1412 16.8581C38.05 16.266 38.0032 15.6248 38.0032 14.9345V9.27148H41.1717V14.3003C41.1717 14.5952 41.1834 14.9017 41.2044 15.22C41.2255 15.5383 41.2887 15.8284 41.394 16.0975C41.4993 16.3643 41.6607 16.5843 41.8807 16.7528C42.0983 16.9212 42.4119 17.0055 42.8214 17.0055C43.2309 17.0055 43.5609 16.9306 43.8136 16.7832C44.0664 16.6358 44.2606 16.4392 44.394 16.1911C44.5274 15.9454 44.6163 15.667 44.6584 15.3557C44.7005 15.0468 44.7216 14.7216 44.7216 14.3846V9.27148H47.8901V19.5398V19.5422Z" fill="white"/>
<path d="M56.574 18.2543H56.5318C56.1785 18.8043 55.7105 19.1974 55.1278 19.4384C54.5428 19.6771 53.9273 19.7965 53.2791 19.7965C52.7994 19.7965 52.3384 19.7286 51.8961 19.5952C51.4515 19.4618 51.0607 19.2606 50.7237 18.9938C50.3867 18.727 50.1176 18.3947 49.9211 18.0016C49.7245 17.6085 49.6262 17.1498 49.6262 16.628C49.6262 16.0359 49.7362 15.5375 49.9538 15.128C50.1715 14.7185 50.4687 14.3815 50.8407 14.1147C51.2128 13.8479 51.641 13.6397 52.1184 13.4922C52.5981 13.3448 53.0942 13.2348 53.6091 13.1646C54.1239 13.0944 54.6364 13.0523 55.1512 13.0383C55.666 13.0242 56.141 13.0172 56.5763 13.0172C56.5763 12.4532 56.375 12.0063 55.9749 11.6763C55.5724 11.3464 55.0974 11.1802 54.5498 11.1802C54.0022 11.1802 53.5529 11.2902 53.1247 11.5078C52.6941 11.7255 52.3103 12.025 51.9733 12.4064L50.2838 10.6748C50.8758 10.1248 51.5662 9.71299 52.3548 9.4392C53.1434 9.16541 53.9601 9.02734 54.8048 9.02734C55.7339 9.02734 56.4991 9.14435 57.0981 9.37602C57.6972 9.60769 58.1746 9.94934 58.535 10.401C58.8953 10.8526 59.1434 11.4049 59.2861 12.0601C59.4265 12.7153 59.4967 13.4735 59.4967 14.3323V19.5507H56.581V18.2614L56.574 18.2543ZM55.7924 15.0437C55.5537 15.0437 55.2541 15.0531 54.8938 15.0765C54.5334 15.0975 54.1894 15.1584 53.8594 15.2567C53.5272 15.355 53.2463 15.5024 53.0147 15.7013C52.783 15.8979 52.666 16.174 52.666 16.525C52.666 16.9041 52.8275 17.1873 53.1527 17.3698C53.4757 17.5523 53.815 17.6436 54.166 17.6436C54.4749 17.6436 54.7744 17.6014 55.0646 17.5172C55.3524 17.433 55.6098 17.3136 55.8368 17.1592C56.0615 17.0047 56.2417 16.8082 56.375 16.5671C56.5084 16.3284 56.5763 16.0453 56.5763 15.7224V15.0461H55.7947L55.7924 15.0437Z" fill="white"/>
<path d="M61.4741 9.27421H64.5162V10.6689H64.5584C64.6566 10.4723 64.7971 10.2758 64.9819 10.0769C65.1644 9.8803 65.3821 9.70479 65.6371 9.54801C65.8899 9.39356 66.18 9.26719 66.503 9.16891C66.8259 9.07063 67.1793 9.02148 67.5584 9.02148C68.361 9.02148 69.0092 9.14551 69.503 9.39122C69.9967 9.63693 70.3805 9.97858 70.6543 10.4162C70.9281 10.8538 71.1153 11.3663 71.2136 11.9583C71.3119 12.5503 71.361 13.1915 71.361 13.8819V19.5449H68.1925V14.516C68.1925 14.2212 68.1808 13.9146 68.1598 13.5964C68.1387 13.2781 68.0755 12.9879 67.9702 12.7188C67.8649 12.4521 67.7034 12.2321 67.4835 12.0636C67.2659 11.8951 66.9523 11.8109 66.5428 11.8109C66.1332 11.8109 65.8033 11.8858 65.5506 12.0332C65.2978 12.1806 65.1036 12.3795 64.9702 12.6252C64.8368 12.8709 64.7479 13.1494 64.7058 13.4606C64.6637 13.7719 64.6426 14.0948 64.6426 14.4318V19.5449H61.4741V9.27655V9.27421Z" fill="white"/>
<path d="M80.5951 11.8108H77.8057V15.2344C77.8057 15.5175 77.8197 15.7726 77.8478 16.0066C77.8759 16.2383 77.9391 16.4395 78.0374 16.608C78.1356 16.7765 78.2877 16.9075 78.4913 16.9988C78.6949 17.0901 78.9664 17.1369 79.3057 17.1369C79.4742 17.1369 79.6965 17.1205 79.9703 17.083C80.2441 17.0479 80.4523 16.966 80.5927 16.8397V19.4816C80.2394 19.608 79.8743 19.6923 79.4929 19.7344C79.1115 19.7765 78.7394 19.7976 78.372 19.7976C77.8361 19.7976 77.3447 19.7414 76.893 19.6291C76.4414 19.5167 76.0483 19.3366 75.709 19.0909C75.3696 18.8451 75.1076 18.5245 74.9157 18.1291C74.7261 17.7359 74.6302 17.2562 74.6302 16.6923V11.8108H72.6013V9.2765H74.6302V6.23438H77.7987V9.2765H80.5881V11.8108H80.5951Z" fill="white"/>
<path d="M82.6029 4.58398H88.1817C88.8299 4.58398 89.4805 4.63079 90.1357 4.72205C90.7909 4.81331 91.3783 4.99584 91.9001 5.27197C92.422 5.54576 92.8432 5.92954 93.1684 6.4233C93.4914 6.91706 93.6552 7.57228 93.6552 8.38898C93.6552 9.20567 93.4188 9.93578 92.9461 10.4904C92.4734 11.0473 91.851 11.4451 91.0764 11.6838V11.726C91.5702 11.7962 92.0171 11.9342 92.4173 12.1378C92.8198 12.3414 93.1638 12.6035 93.4516 12.9194C93.7394 13.2353 93.9617 13.605 94.1162 14.0286C94.2706 14.4522 94.3479 14.9015 94.3479 15.3812C94.3479 16.1698 94.1794 16.8297 93.8401 17.3562C93.5007 17.8851 93.0655 18.311 92.5296 18.6339C91.9937 18.9592 91.3923 19.1908 90.723 19.3313C90.0538 19.4717 89.3892 19.5419 88.7269 19.5419H82.6006V4.58398H82.6029ZM85.8978 10.5629H88.2847C88.5374 10.5629 88.7878 10.5348 89.0358 10.4787C89.2816 10.4225 89.5039 10.3313 89.7004 10.2049C89.897 10.0785 90.0561 9.91004 90.1755 9.69709C90.2948 9.48648 90.3557 9.23141 90.3557 8.93656C90.3557 8.64171 90.2878 8.37026 90.1544 8.16433C90.021 7.96074 89.8479 7.80161 89.6372 7.68929C89.4266 7.57696 89.1856 7.49506 88.9188 7.44592C88.6521 7.39678 88.39 7.37104 88.1372 7.37104H85.8978V10.5606V10.5629ZM85.8978 16.7525H88.8557C89.1084 16.7525 89.3658 16.7244 89.6279 16.6682C89.8876 16.6121 90.124 16.5138 90.3346 16.3734C90.5452 16.233 90.7184 16.0504 90.8518 15.8235C90.9851 15.5988 91.053 15.3227 91.053 14.9997C91.053 14.6487 90.9641 14.3632 90.7886 14.1433C90.6131 13.9256 90.3908 13.7595 90.124 13.6472C89.8572 13.5348 89.567 13.4576 89.2581 13.4155C88.9469 13.3734 88.6591 13.3523 88.3923 13.3523H85.9001V16.7548L85.8978 16.7525Z" fill="white"/>
<path d="M105.611 17.7688C105.103 18.417 104.462 18.9177 103.687 19.2688C102.913 19.6198 102.11 19.7976 101.279 19.7976C100.448 19.7976 99.7464 19.6713 99.049 19.4185C98.3517 19.1658 97.7456 18.8031 97.2331 18.3304C96.7183 17.8577 96.3134 17.2914 96.0186 16.6291C95.7237 15.9669 95.574 15.2274 95.574 14.4107C95.574 13.594 95.7214 12.8546 96.0186 12.1923C96.3134 11.5301 96.7183 10.9638 97.2331 10.4911C97.7479 10.0184 98.354 9.65565 99.049 9.40292C99.7464 9.15019 100.488 9.02148 101.279 9.02148C102.012 9.02148 102.676 9.14785 103.275 9.40292C103.874 9.65565 104.38 10.0184 104.796 10.4911C105.21 10.9638 105.531 11.5301 105.758 12.1923C105.983 12.8546 106.097 13.594 106.097 14.4107V15.4029H98.7448C98.8712 16.009 99.1473 16.4911 99.5685 16.8491C99.9897 17.2071 100.512 17.3873 101.132 17.3873C101.654 17.3873 102.093 17.2703 102.452 17.0386C102.812 16.807 103.123 16.5074 103.392 16.14L105.611 17.7664V17.7688ZM102.927 13.2477C102.941 12.7118 102.765 12.2555 102.398 11.8741C102.03 11.495 101.56 11.3031 100.982 11.3031C100.629 11.3031 100.32 11.3592 100.053 11.4716C99.7861 11.5839 99.5568 11.729 99.3673 11.9045C99.1777 12.08 99.0303 12.2859 98.9226 12.5176C98.8173 12.7493 98.7565 12.9926 98.7425 13.2477H102.927Z" fill="white"/>
</g>
<defs>
<clipPath id="clip0_474_57715">
<rect width="106.708" height="24" fill="white"/>
</clipPath>
</defs>
</svg>
